# xmcd CD database file generated by Grip 3.0.1
# 
# Track frame offsets:
#       150
#       8454
#       23033
#       35265
#       48380
#       62064
#       78760
#       86835
#       95764
#       110781
#       118634
#       127863
#       145292
# 
# Disc length: 2092 seconds
# 
# Revision: 1
# Processed by: cddbd v1.4PL0 Copyright (c) Steve Scherf et al.
# Submitted via: Grip 3.0.1
# 
DISCID=a1082a0d
DTITLE=The Meat Purveyors - All Relationships Are Doomed to Fail
DYEAR=2002
DGENRE=Country
TTITLE0=Hey Little Sister
TTITLE1=S.O.S.
TTITLE2=2:00 A.M.
TTITLE3=Thinking About Drinking
TTITLE4=Round and Round
TTITLE5=Circus Clown
TTITLE6=Truckers Speed
TTITLE7=Without Love
TTITLE8=Dues
TTITLE9=Love Me Darling
TTITLE10=Stanley Joe
TTITLE11=Last Waltz
TTITLE12=I Have a Devil in Me
EXTD=
EXTT0=
EXTT1=
EXTT2=
EXTT3=
EXTT4=
EXTT5=
EXTT6=
EXTT7=
EXTT8=
EXTT9=
EXTT10=
EXTT11=
EXTT12=
PLAYORDER=
